<svg width="26" height="26" viewBox="0 0 26 26" fill="none" xmlns="http://www.w3.org/2000/svg">
<path d="M13.0234 2.55422C16.403 2.55422 16.8638 2.55422 18.2463 2.55422C19.4752 2.55422 20.0897 2.86145 20.5505 3.01506C21.165 3.32229 21.6258 3.4759 22.0867 3.93675C22.5475 4.39759 22.8548 4.85844 23.0084 5.47289C23.162 5.93374 23.3156 6.54819 23.4692 7.77711C23.4692 9.15964 23.4692 9.46687 23.4692 13C23.4692 16.5331 23.4692 16.8404 23.4692 18.2229C23.4692 19.4518 23.162 20.0663 23.0084 20.5271C22.7012 21.1416 22.5475 21.6024 22.0867 22.0633C21.6258 22.5241 21.165 22.8313 20.5505 22.9849C20.0897 23.1386 19.4752 23.2922 18.2463 23.4458C16.8638 23.4458 16.5566 23.4458 13.0234 23.4458C9.49031 23.4458 9.18308 23.4458 7.80055 23.4458C6.57163 23.4458 5.95717 23.1386 5.49633 22.9849C4.88187 22.6777 4.42103 22.5241 3.96019 22.0633C3.49934 21.6024 3.19211 21.1416 3.0385 20.5271C2.88488 20.0663 2.73127 19.4518 2.57765 18.2229C2.57765 16.8404 2.57765 16.5331 2.57765 13C2.57765 9.46687 2.57765 9.15964 2.57765 7.77711C2.57765 6.54819 2.88488 5.93374 3.0385 5.47289C3.34573 4.85844 3.49934 4.39759 3.96019 3.93675C4.42103 3.4759 4.88187 3.16868 5.49633 3.01506C5.95717 2.86145 6.57163 2.70783 7.80055 2.55422C9.18308 2.55422 9.64392 2.55422 13.0234 2.55422ZM13.0234 0.25C9.49031 0.25 9.18308 0.25 7.80055 0.25C6.41802 0.25 5.49633 0.55723 4.72826 0.864459C3.96019 1.17169 3.19211 1.63253 2.42404 2.4006C1.65597 3.16868 1.34874 3.78313 0.887896 4.70482C0.580667 5.47289 0.427052 6.39458 0.273438 7.77711C0.273438 9.15964 0.273438 9.62048 0.273438 13C0.273438 16.5331 0.273438 16.8404 0.273438 18.2229C0.273438 19.6054 0.580667 20.5271 0.887896 21.2952C1.19513 22.0633 1.65597 22.8313 2.42404 23.5994C3.19211 24.3675 3.80657 24.6747 4.72826 25.1355C5.49633 25.4428 6.41802 25.5964 7.80055 25.75C9.18308 25.75 9.64392 25.75 13.0234 25.75C16.403 25.75 16.8638 25.75 18.2463 25.75C19.6289 25.75 20.5505 25.4428 21.3186 25.1355C22.0867 24.8283 22.8548 24.3675 23.6228 23.5994C24.3909 22.8313 24.6981 22.2169 25.159 21.2952C25.4662 20.5271 25.6198 19.6054 25.7734 18.2229C25.7734 16.8404 25.7734 16.3795 25.7734 13C25.7734 9.62048 25.7734 9.15964 25.7734 7.77711C25.7734 6.39458 25.4662 5.47289 25.159 4.70482C24.8518 3.93675 24.3909 3.16868 23.6228 2.4006C22.8548 1.63253 22.2403 1.3253 21.3186 0.864459C20.5505 0.55723 19.6289 0.403614 18.2463 0.25C16.8638 0.25 16.5566 0.25 13.0234 0.25Z" fill="white"/>
<path d="M13.0234 6.39458C9.33669 6.39458 6.41802 9.31325 6.41802 13C6.41802 16.6867 9.33669 19.6054 13.0234 19.6054C16.7102 19.6054 19.6289 16.6867 19.6289 13C19.6289 9.31325 16.7102 6.39458 13.0234 6.39458ZM13.0234 17.3012C10.7192 17.3012 8.72223 15.4578 8.72223 13C8.72223 10.6958 10.5656 8.6988 13.0234 8.6988C15.3277 8.6988 17.3246 10.5422 17.3246 13C17.3246 15.3042 15.3277 17.3012 13.0234 17.3012Z" fill="white"/>
<path d="M19.7825 7.77711C20.6309 7.77711 21.3186 7.08935 21.3186 6.24097C21.3186 5.39258 20.6309 4.70482 19.7825 4.70482C18.9341 4.70482 18.2463 5.39258 18.2463 6.24097C18.2463 7.08935 18.9341 7.77711 19.7825 7.77711Z" fill="white"/>
</svg>
