<svg width="109" height="21" viewBox="0 0 109 21" fill="none" xmlns="http://www.w3.org/2000/svg">
<path d="M33.3682 19.5798C33.1508 19.7126 32.9421 19.7524 32.742 19.6993C32.5507 19.6551 32.3855 19.5267 32.2463 19.3144L28.0455 12.4119H23.636V18.7038C23.636 19.2613 23.362 19.54 22.8141 19.54C22.2662 19.54 21.9922 19.2613 21.9922 18.7038V2.97408C21.9922 2.41658 22.2662 2.13782 22.8141 2.13782H28.9196C30.4416 2.13782 31.5983 2.54047 32.3898 3.34576C33.1813 4.15104 33.577 5.328 33.577 6.87664V7.67307C33.577 9.02702 33.2682 10.0978 32.6507 10.8854C32.0419 11.673 31.1417 12.1553 29.9502 12.3322L33.6553 18.4383C33.9249 18.9073 33.8292 19.2878 33.3682 19.5798ZM23.636 10.7394H28.9196C29.9893 10.7394 30.7591 10.5004 31.2287 10.0226C31.6984 9.53586 31.9332 8.75269 31.9332 7.67307V6.87664C31.9332 5.79702 31.6984 5.01828 31.2287 4.54042C30.7591 4.0537 29.9893 3.81035 28.9196 3.81035H23.636V10.7394Z" fill="white"/>
<path d="M40.1264 19.54C39.8655 19.54 39.6611 19.4692 39.5133 19.3276C39.3741 19.1772 39.3046 18.9692 39.3046 18.7038V2.97408C39.3046 2.69976 39.3741 2.4918 39.5133 2.35021C39.6611 2.20862 39.8655 2.13782 40.1264 2.13782C40.3961 2.13782 40.6004 2.20862 40.7396 2.35021C40.8788 2.4918 40.9483 2.69976 40.9483 2.97408V10.8389V18.7038C40.9483 18.9692 40.8788 19.1772 40.7396 19.3276C40.6004 19.4692 40.3961 19.54 40.1264 19.54Z" fill="white"/>
<path d="M52.6984 19.54C50.7763 19.54 49.3674 19.0843 48.4716 18.1728C47.5757 17.2613 47.1278 15.8277 47.1278 13.872V7.80581C47.1278 5.83242 47.5757 4.3944 48.4716 3.49177C49.3674 2.58029 50.7676 2.12897 52.6723 2.13782H55.8295C57.4472 2.13782 58.6604 2.47852 59.4693 3.15992C60.2781 3.83247 60.7304 4.91651 60.8261 6.41205C60.8608 6.68638 60.8087 6.89876 60.6695 7.0492C60.5304 7.19964 60.3216 7.27486 60.0433 7.27486C59.5389 7.27486 59.2519 6.9961 59.1823 6.43859C59.1127 5.42977 58.8213 4.73952 58.3082 4.36785C57.8038 3.99618 56.9775 3.81035 55.8295 3.81035H52.6723C51.6983 3.8015 50.9285 3.92096 50.3632 4.16874C49.7979 4.41652 49.3891 4.83244 49.1369 5.4165C48.8934 6.00055 48.7716 6.79699 48.7716 7.80581V13.872C48.7716 14.8631 48.8934 15.6507 49.1369 16.2348C49.3891 16.8189 49.8022 17.2392 50.3763 17.4958C50.9503 17.7436 51.7243 17.8675 52.6984 17.8675H55.8295C56.6992 17.8675 57.3819 17.7657 57.8777 17.5622C58.3734 17.3498 58.7213 16.9914 58.9214 16.487C59.1301 15.9826 59.2345 15.2879 59.2345 14.403V12.8765L56.6514 12.8499C56.1034 12.8499 55.8295 12.5712 55.8295 12.0137C55.8295 11.4562 56.1034 11.1774 56.6514 11.1774L60.0563 11.204C60.6043 11.204 60.8782 11.4827 60.8782 12.0402V14.403C60.8782 16.1994 60.4738 17.5047 59.665 18.3188C58.8648 19.1329 57.5863 19.54 55.8295 19.54H52.6984Z" fill="white"/>
<path d="M65.6592 19.4604C65.1547 19.2391 65.0025 18.8719 65.2026 18.3586L71.582 2.78825C71.7647 2.35463 72.0734 2.13782 72.5083 2.13782H72.5735C72.9997 2.14667 73.2954 2.36348 73.4606 2.78825L79.8792 18.3586C80.0967 18.8719 79.9488 19.2391 79.4357 19.4604C78.9312 19.6639 78.5746 19.5135 78.3659 19.0091L76.7482 15.0667H68.3336L66.7289 19.0091C66.5289 19.5223 66.1723 19.6728 65.6592 19.4604ZM68.9989 13.3942H76.0568L72.5083 4.77935L68.9989 13.3942Z" fill="white"/>
<path d="M85.6934 19.54C85.1455 19.54 84.8715 19.2613 84.8715 18.7038V2.97408C84.8715 2.41658 85.1455 2.13782 85.6934 2.13782C86.0761 2.13782 86.3849 2.31923 86.6197 2.68206L92.9992 12.5579L92.6339 12.611L99.0394 2.68206C99.2656 2.31923 99.5961 2.13782 100.031 2.13782C100.501 2.13782 100.735 2.41658 100.735 2.97408V18.7038C100.735 19.2613 100.461 19.54 99.9135 19.54C99.3656 19.54 99.0916 19.2613 99.0916 18.7038V4.64661L99.5874 4.81917L93.7428 13.7791C93.508 14.1419 93.1775 14.3233 92.7513 14.3233C92.4121 14.3233 92.1251 14.1419 91.8903 13.7791L86.0457 4.81917L86.5153 4.97846V18.7038C86.5153 19.2613 86.2414 19.54 85.6934 19.54Z" fill="white"/>
<path d="M108.178 19.54C107.917 19.54 107.713 19.4692 107.565 19.3276C107.426 19.1772 107.356 18.9692 107.356 18.7038V2.97408C107.356 2.69976 107.426 2.4918 107.565 2.35021C107.713 2.20862 107.917 2.13782 108.178 2.13782C108.448 2.13782 108.652 2.20862 108.791 2.35021C108.931 2.4918 109 2.69976 109 2.97408V18.7038C109 18.9692 108.931 19.1772 108.791 19.3276C108.652 19.4692 108.448 19.54 108.178 19.54Z" fill="white"/>
<path d="M9.97559 1.3418C12.046 1.3418 13.6759 1.84066 14.7549 2.93848C15.8321 4.03454 16.3203 5.68777 16.3203 7.78906V13.8955C16.3202 15.9889 15.8318 17.6403 14.7568 18.7441L14.7549 18.7451C13.6759 19.843 12.0461 20.3418 9.97559 20.3418H6.84473C4.78189 20.3418 3.15412 19.8426 2.06738 18.7471L2.06348 18.7441C0.988453 17.6403 0.500071 15.9889 0.5 13.8955V7.7627C0.5 5.65364 0.99192 3.99824 2.08008 2.91016L2.29004 2.71191C3.37181 1.75495 4.91944 1.32723 6.84473 1.34375V1.3418H9.97559ZM6.83984 4.57227C5.94951 4.56372 5.30008 4.66836 4.8584 4.85254C4.45172 5.02213 4.16854 5.30465 3.99219 5.72559C3.80267 6.178 3.69141 6.84613 3.69141 7.7627V13.8955C3.69144 14.8089 3.79792 15.477 3.97949 15.9316L4.05078 16.084C4.22851 16.4227 4.48964 16.6625 4.8457 16.8184L5.02148 16.8838C5.45631 17.0285 6.0567 17.1113 6.84473 17.1113H9.97559C10.8759 17.1113 11.5312 17.0032 11.9746 16.8184C12.3802 16.6408 12.6574 16.3549 12.8252 15.9385L12.8281 15.9316C13.0176 15.4793 13.1289 14.8117 13.1289 13.8955V7.78906C13.1289 6.8822 13.0178 6.21846 12.8281 5.76562L12.8252 5.75879C12.6565 5.34031 12.3776 5.05335 11.9688 4.87598C11.5277 4.6847 10.8746 4.57227 9.97559 4.57227H6.83984Z" fill="#C51872" stroke="#C51872"/>
</svg>
