<svg width="335" height="24" viewBox="0 0 335 24" fill="none" xmlns="http://www.w3.org/2000/svg">
<path d="M26.824 0.664L36.872 23H20.136L18.28 18.488H9.192L7.08 23H0.968L11.144 2.296L10.088 0.664H26.824ZM11.208 14.168H16.52L14.024 8.152L11.208 14.168ZM65.708 0.664H80.588V13.56C80.588 19.032 76.172 23.448 68.94 23.448H50.604C43.372 23.448 38.956 19.032 38.956 13.56V0.664H53.836V13.688C53.836 16.792 56.364 19.32 59.468 19.32H60.076C63.18 19.32 65.708 16.792 65.708 13.688V0.664ZM119.066 7.192L109.562 5.688L109.882 23H93.594L93.946 5.688L84.442 7.192L85.338 0.664H118.138L119.066 7.192ZM150.985 0.216C158.921 0.216 163.913 5.432 163.913 11.832C163.913 18.264 158.921 23.448 150.985 23.448H135.209C127.273 23.448 122.281 18.264 122.281 11.832C122.281 5.432 127.273 0.216 135.209 0.216H150.985ZM149.033 13.912V9.752C149.033 6.872 146.761 4.536 144.009 4.536H142.185C139.401 4.536 137.161 6.872 137.161 9.752V13.912C137.161 16.792 139.401 19.16 142.185 19.16H144.009C146.761 19.16 149.033 16.792 149.033 13.912ZM197.078 10.904C199.99 12.28 201.046 16.12 199.478 19C198.038 21.624 195.286 23 192.47 23H168.918L168.022 16.472L182.966 18.2C182.966 18.2 181.782 17.656 171.19 12.76C168.182 11.384 167.222 7.576 168.822 4.664L168.854 4.632C170.262 1.976 172.982 0.664 175.798 0.664H199.35L200.278 7.192L185.974 5.624C185.974 5.624 190.614 7.832 197.078 10.904ZM231.636 8.472L245.684 23H228.02L220.308 12.504V23H205.332V0.664H220.308V11.064L232.692 0.664H244.532L231.636 8.472ZM264.415 23H249.439V0.664H264.415V23ZM285.533 18.488L300.189 16.472L299.261 23H270.141V0.664H285.533V18.488ZM319.765 18.488L334.421 16.472L333.493 23H304.373V0.664H319.765V18.488Z" fill="url(#paint0_linear_268_1251)"/>
<defs>
<linearGradient id="paint0_linear_268_1251" x1="1" y1="13" x2="335" y2="13" gradientUnits="userSpaceOnUse">
<stop stop-color="#00E4E4"/>
<stop offset="0.403059" stop-color="#3575C8"/>
<stop offset="0.615385" stop-color="#993EB7"/>
<stop offset="0.817179" stop-color="#FF3131"/>
</linearGradient>
</defs>
</svg>
