<svg width="29" height="28" viewBox="0 0 29 28" fill="none" xmlns="http://www.w3.org/2000/svg">
<g clip-path="url(#clip0_268_1260)">
<path fill-rule="evenodd" clip-rule="evenodd" d="M2.38093 1.60578C0.363281 3.64264 0.363281 6.8997 0.363281 13.4234V14.5764C0.363281 21.0905 0.363281 24.3475 2.38093 26.394C4.41779 28.4117 7.67484 28.4117 14.1986 28.4117H15.3515C21.8656 28.4117 25.1227 28.4117 27.1692 26.394C29.1868 24.3572 29.1868 21.1001 29.1868 14.5764V13.4234C29.1868 6.90931 29.1868 3.65225 27.1692 1.60578C25.1323 -0.411865 21.8753 -0.411865 15.3515 -0.411865H14.1986C7.68446 -0.411865 4.4274 -0.411865 2.38093 1.60578ZM5.22484 8.3601C5.37857 15.8543 9.12563 20.3507 15.6974 20.3507H16.0818V16.0655C18.4933 16.3058 20.3188 18.0737 21.0489 20.3507H24.4597C24.11 19.0568 23.4897 17.8517 22.6401 16.8149C21.7905 15.7783 20.7309 14.9335 19.5309 14.3361C20.6062 13.6814 21.5349 12.8118 22.2589 11.7819C22.983 10.7521 23.487 9.58392 23.7392 8.35049H20.6454C19.9729 10.7332 17.9745 12.8949 16.0818 13.0967V8.3601H12.9783V16.6613C11.0568 16.1808 8.63563 13.8558 8.52994 8.3601H5.22484Z" fill="white"/>
</g>
<defs>
<clipPath id="clip0_268_1260">
<rect width="28" height="28" fill="white" transform="translate(0.773438)"/>
</clipPath>
</defs>
</svg>
