<svg width="29" height="28" viewBox="0 0 29 28" fill="none" xmlns="http://www.w3.org/2000/svg">
<path d="M18.8944 20.1393C13.4847 20.1393 9.08351 15.767 9.08203 10.3946C9.08351 9.03272 10.2001 7.92529 11.5685 7.92529C11.7091 7.92529 11.8483 7.93706 11.9816 7.96059C12.2748 8.00912 12.5532 8.10766 12.8094 8.2562C12.8465 8.27826 12.8716 8.31358 12.8776 8.35476L13.4492 11.9329C13.4566 11.9755 13.4433 12.0167 13.4151 12.0476C13.0997 12.3947 12.6969 12.6447 12.2482 12.7697L12.032 12.83L12.1134 13.0374C12.8509 14.9022 14.3525 16.392 16.2318 17.1273L16.4406 17.2097L16.5013 16.995C16.6272 16.5494 16.8789 16.1493 17.2284 15.8361C17.2536 15.8126 17.2877 15.8008 17.3217 15.8008C17.3291 15.8008 17.3365 15.8008 17.3454 15.8023L20.9484 16.37C20.9914 16.3773 21.0269 16.4008 21.0491 16.4376C21.1972 16.692 21.2964 16.97 21.3468 17.2612C21.3705 17.3906 21.3808 17.5274 21.3808 17.67C21.3808 19.0304 20.2657 20.1378 18.8944 20.1393Z" fill="white"/>
<path d="M28.4863 12.8212C28.1946 9.54749 26.6841 6.51055 24.2332 4.2707C21.7675 2.01762 18.5688 0.776367 15.2234 0.776367C7.88117 0.776367 1.90726 6.70908 1.90726 14.0007C1.90726 16.4479 2.58698 18.8319 3.87388 20.9085L1.00391 27.2177L10.1928 26.2456C11.7907 26.8956 13.4819 27.225 15.222 27.225C15.6795 27.225 16.149 27.2015 16.6199 27.153C17.0346 27.1089 17.4537 27.0442 17.8654 26.9618C24.014 25.7279 28.5026 20.3085 28.5381 14.0713V14.0007C28.5381 13.6036 28.5204 13.2065 28.4848 12.8227L28.4863 12.8212ZM10.5468 23.4763L5.46289 24.0146L6.9808 20.6747L6.67721 20.2702C6.655 20.2408 6.63279 20.2114 6.60761 20.1776C5.28962 18.3701 4.59359 16.2347 4.59359 14.0022C4.59359 8.18123 9.36206 3.44564 15.2234 3.44564C20.7146 3.44564 25.369 7.70033 25.8177 13.1315C25.8414 13.4227 25.8548 13.7154 25.8548 14.0037C25.8548 14.086 25.8533 14.1669 25.8518 14.2537C25.7392 19.1231 22.3139 23.2587 17.5218 24.3117C17.156 24.3925 16.7813 24.4543 16.4081 24.494C16.0202 24.5381 15.6218 24.5602 15.2264 24.5602C13.8181 24.5602 12.4497 24.2896 11.1569 23.7543C11.0133 23.6969 10.8726 23.6351 10.7408 23.5719L10.5483 23.4792L10.5468 23.4763Z" fill="white"/>
</svg>
